<?xml version="1.0" standalone="no"?>
<!DOCTYPE svg PUBLIC "-//W3C//DTD SVG 20010904//EN"
 "http://www.w3.org/TR/2001/REC-SVG-20010904/DTD/svg10.dtd">
<svg version="1.0" xmlns="http://www.w3.org/2000/svg"
 width="226.000000pt" height="226.000000pt" viewBox="0 0 226.000000 226.000000"
 preserveAspectRatio="xMidYMid meet">
<metadata>
Created by potrace 1.14, written by Peter Selinger 2001-2017
</metadata>
<g transform="translate(0.000000,226.000000) scale(0.100000,-0.100000)"
fill="#000000" stroke="none">
<path d="M1183 2189 c-79 -16 -171 -88 -229 -180 -41 -66 -70 -142 -139 -374
-35 -115 -90 -298 -123 -405 -33 -107 -67 -217 -75 -245 -8 -27 -56 -185 -107
-350 -112 -364 -120 -393 -113 -411 4 -12 52 -14 273 -14 l268 0 -25 -86 c-14
-47 -22 -88 -19 -91 24 -25 332 93 355 135 5 9 91 284 191 611 130 422 180
599 173 610 -8 12 -42 14 -208 14 -229 -1 -211 7 -246 -107 -12 -39 -29 -96
-39 -126 -29 -94 -44 -159 -37 -167 4 -3 25 -7 47 -7 23 0 40 -5 40 -11 0 -10
-36 -134 -95 -325 l-14 -45 -111 1 c-60 0 -112 2 -114 5 -2 2 7 38 20 79 13
41 91 295 174 564 82 269 157 497 166 507 15 16 32 19 121 19 56 0 103 -3 103
-7 0 -5 -12 -42 -25 -83 -14 -41 -25 -78 -25 -83 0 -38 305 67 352 120 14 17
29 58 102 296 32 102 42 157 30 158 -34 5 -648 3 -671 -2z"/>
</g>
</svg>
